<svg viewBox="0 0 453.98098 158.27001" xmlns="http://www.w3.org/2000/svg"><g transform="translate(-77.023 -38.583)"><path d="m136.4 58.657-39.374 22.753v52.08c0 23.935 19.428 43.363 43.363 43.363 7.904 0 15.365-2.142 21.718-5.836l31.987-18.468c12.558-6.575 21.201-19.724 21.201-34.942v-54.444l-7.904-4.58-31.544 18.173v56.66c0 2.438-.222 4.802-.739 7.166-.443 2.29-1.182 4.506-2.068 6.649-.222.517-.517 1.108-.739 1.625-.96-.074-1.921-.222-2.807-.443-1.995-.443-3.989-1.034-5.91-1.847-1.847-.813-3.694-1.773-5.319-2.881-1.699-1.108-3.25-2.438-4.654-3.841-1.404-1.404-2.733-3.029-3.841-4.654-1.108-1.699-2.142-3.472-2.881-5.319-.813-1.921-1.404-3.915-1.847-5.91-.443-2.068-.665-4.211-.665-6.353v-54.444zm17.73 107.56c-2.142.886-4.358 1.625-6.649 2.068-2.364.443-4.728.739-7.166.739s-4.802-.222-7.166-.739c-2.29-.443-4.506-1.182-6.649-2.068-2.068-.886-4.137-1.995-5.984-3.25-1.847-1.256-3.62-2.733-5.245-4.358s-3.029-3.398-4.358-5.245c-1.256-1.921-2.364-3.915-3.25-5.984-.886-2.142-1.625-4.358-2.068-6.649-.443-2.364-.739-4.728-.739-7.166v-47.574l31.544-18.173v49.864c0 18.985 13.371 34.794 31.248 38.561-.665.813-1.404 1.625-2.216 2.438-1.625 1.625-3.398 3.029-5.245 4.358-1.92 1.183-3.915 2.291-6.057 3.178zm52.597-42.255c-.443 1.995-1.034 3.989-1.847 5.91-.813 1.847-1.773 3.694-2.881 5.319-1.108 1.699-2.438 3.25-3.841 4.654-1.404 1.404-3.029 2.733-4.654 3.841-1.699 1.108-3.472 2.142-5.319 2.881-1.921.813-3.915 1.404-5.91 1.847-.443.074-.813.148-1.256.222 1.773-4.728 2.733-9.825 2.733-15.218v-52.155l23.639-13.666v49.864c-.073 2.29-.295 4.432-.664 6.501z" fill="#fff"/><path d="m295.37 157.28c0 4.728-3.915 8.569-9.308 8.569s-9.16-3.841-9.16-8.569v-16.917h-2.807v16.991c0 6.058 4.728 11.007 12.041 11.007s12.115-4.949 12.115-11.007v-16.991h-2.807zm30.214-16.917h-8.939v27.702h8.865c8.274 0 13.814-5.097 13.814-13.888.074-8.643-5.467-13.814-13.74-13.814zm-.296 25.191h-5.836v-22.679h5.836c6.722 0 11.229 3.989 11.229 11.302.074 7.314-4.433 11.377-11.229 11.377zm79.339.369c-6.501 0-11.155-5.319-11.155-11.893 0-6.501 4.654-11.45 11.081-11.45 5.171 0 8.348 3.029 8.348 3.029l1.477-1.995s-3.324-3.546-9.899-3.546c-7.83 0-13.814 6.058-13.814 14.036s5.836 14.405 13.962 14.405c6.796 0 10.49-4.285 10.49-4.285l-1.551-1.921c0-.074-3.398 3.62-8.939 3.62zm28.441 2.142h2.807v-27.702h-2.807zm19.207-25.19h9.973v25.191h2.807v-25.191h9.973v-2.512h-22.679v2.512zm55.7-2.512-8.791 12.706h-.074l-8.865-12.706h-3.177l10.638 15.735v11.893h2.807v-11.893l10.49-15.735zm-144.57 0-11.229 27.702h2.955l2.955-7.387 12.484-2.586 3.989 9.899h2.955l-11.229-27.702h-2.881v.074zm-3.989 17.212 5.467-13.445h.074l4.654 11.302z" fill="#fff"/><path d="m274.32 121.08h236.39" stroke="#fff" stroke-miterlimit="10"/><g fill="#fff"><path d="m287.24 68.039c-1.182 3.177-2.586 6.279-4.211 9.234v26.963h-2.955v-22.309c-1.108 1.551-2.216 2.955-3.398 4.211l-1.699-2.955c3.767-3.915 7.313-9.899 9.456-16.03zm10.194 11.303c-.739 9.973-2.955 19.207-10.342 24.6l-2.216-2.216c6.87-4.802 8.939-13.297 9.603-22.383h-9.308v-2.955h9.456c.148-3.029.148-5.836.148-8.865h2.955c0 3.029-.074 5.836-.222 8.865h14.11v2.955h-14.184zm10.49 21.275c1.182 0 1.108-.96 1.256-6.279.813.443 2.216.96 2.955 1.33-.295 6.058-.96 7.683-3.915 7.683h-4.728c-3.177 0-3.989-.96-3.989-4.285v-15.957h2.955v15.956c0 1.182.222 1.477 1.404 1.477h4.063v.075zm-.886-24.969c-1.108-1.699-3.472-3.989-5.467-5.91l2.512-1.699c1.921 1.773 4.285 4.285 5.467 5.91z"/><path d="m349.96 96.628c.813.517 1.847 1.33 3.177 2.216 2.659 1.773 5.984 1.995 10.638 1.995 4.802 0 10.564-.369 14.405-.813-.222.886-.591 2.068-.886 2.955-2.659.222-9.973.739-13.593.739-5.171 0-8.495-.517-11.302-2.364-1.625-1.108-2.955-2.586-3.841-2.586-1.33 0-3.324 2.512-5.467 5.467l-2.068-2.733c2.142-2.512 4.211-4.358 5.984-5.023v-10.713h-5.467v-2.955h8.421zm-2.143-19.576c-.886-2.142-3.029-5.393-4.949-7.83l2.586-1.256c1.995 2.29 4.137 5.54 5.097 7.609zm26.964 19.206c-2.216-3.25-6.501-8.126-10.49-12.263-1.551 5.393-4.137 10.121-9.677 13.075l-2.068-2.512c6.87-3.472 9.234-9.308 10.121-16.4h-10.047v-2.955h10.342c.222-2.512.296-5.245.369-7.978h2.955c-.074 2.659-.148 5.467-.369 7.978h11.45v2.955h-11.746c-.074.96-.296 1.699-.443 2.659 4.432 4.358 9.677 10.047 12.189 13.74z"/><path d="m436.69 81.927c-2.586 2.364-6.058 4.654-9.677 6.279v1.699h16.4v2.955h-16.4v7.535c0 1.847-.517 2.659-1.995 3.103-1.477.517-3.62.665-7.313.665-.296-.886-.591-1.995-.813-2.955 3.103.148 5.319 0 6.131-.074.886-.074 1.034-.222 1.034-.813v-7.535h-16.4v-2.955h16.4v-2.955c2.364-.886 4.728-1.921 6.796-3.324h-16.547v-2.955h19.946zm-25.265 0h-2.955v-7.978h6.722c-.739-1.551-2.068-3.694-3.398-5.245l2.512-1.256c1.477 1.699 3.103 4.063 3.767 5.614l-1.625.886h8.865c-.591-1.699-1.847-4.063-3.103-5.91l2.586-1.256c1.404 1.921 2.881 4.58 3.398 6.279l-2.068.886h6.649c1.477-1.847 3.177-4.654 4.063-6.575l2.733 1.108c-1.182 1.847-2.364 3.841-3.62 5.467h6.501v7.978h-2.955v-5.023h-28.219v5.023h.147z"/><path d="m485.3 94.116c-3.841 1.625-7.83 3.398-11.007 4.654l-1.034-2.955c1.33-.443 2.881-1.108 4.654-1.773v-14.257h-3.767v-2.955h3.767v-9.308h2.955v9.308h3.767v2.955h-3.767v13.223l3.841-1.404zm24.008-13.075c-1.33 5.245-3.177 9.751-5.614 13.593.96 3.915 2.142 6.131 3.546 6.131.739 0 1.256-1.625 1.404-6.353.886.517 1.404.886 2.068 1.256-.443 6.058-1.256 7.978-3.915 7.978-2.29 0-3.989-2.364-5.245-6.205-1.921 2.512-4.285 4.432-6.87 6.205-.369-.591-1.477-1.699-2.142-2.068 3.176-1.921 5.91-4.358 8.052-7.461-1.034-4.802-1.699-11.229-1.921-18.246h-9.53v5.467h7.978v1.182c-.222 9.234-.296 12.484-1.108 13.519-.517.739-1.404 1.034-2.364 1.108-.739.074-2.216.074-3.62 0-.074-.813-.296-1.847-.517-2.659 1.404.148 2.364.222 2.881.222s.739-.074 1.034-.443c.443-.591.591-3.25.739-10.564h-4.876v1.847c0 5.688-.665 13.371-5.023 18.394-.443-.591-1.699-1.551-2.364-1.921 4.063-4.654 4.432-11.302 4.432-16.547v-12.709h12.189c-.074-1.995 0-3.768 0-5.91h2.955c0 2.142-.074 3.915 0 5.91h5.467c-.96-1.33-2.881-3.324-4.58-4.654l2.068-1.256c1.773 1.33 3.694 3.25 4.654 4.654l-1.995 1.256h2.807v2.955h-8.348c.222 5.614.665 10.638 1.33 14.627 1.625-3.029 2.807-6.279 3.694-10.047z"/></g></g></svg>